<svg xmlns="http://www.w3.org/2000/svg" viewBox="0 0 720 560" fill="none" role="img" aria-label="Minimal architectural line sketch">
  <g class="sketch-group sketch-primary" stroke="#D7E6F2" stroke-width="2.2" stroke-linecap="round" stroke-linejoin="round">
    <path d="M238 506V118l132-38 118 44v382" />
    <path d="M238 118l250 6" />
    <path d="M370 80v426" />
    <path d="M302 98v408" />
    <path d="M438 106v400" />
    <path d="M204 506h344" />
  </g>

  <g class="sketch-group sketch-secondary" stroke="#AFC7DA" stroke-width="1.45" stroke-linecap="round" stroke-linejoin="round" opacity=".86">
    <path d="M262 150h202" />
    <path d="M262 190h202" />
    <path d="M262 230h202" />
    <path d="M262 270h202" />
    <path d="M262 310h202" />
    <path d="M262 350h202" />
    <path d="M262 390h202" />
    <path d="M262 430h202" />
    <path d="M262 470h202" />
  </g>

  <g class="sketch-group sketch-structure" stroke="#D7E6F2" stroke-width="1.55" stroke-linecap="round" stroke-linejoin="round" opacity=".68">
    <path d="M262 150l202 320" />
    <path d="M464 150L262 470" />
    <path d="M302 98l68 52 68-44" />
    <path d="M238 506l64-36 68 36 68-36 50 36" />
  </g>

  <g class="sketch-group sketch-service" stroke="#AFC7DA" stroke-width="1.5" stroke-linecap="round" stroke-linejoin="round" opacity=".72">
    <path d="M196 500V186l42-68" />
    <path d="M174 500V218l22-32" />
    <path d="M524 500V180l-36-56" />
    <path d="M548 500V218l-24-38" />
    <path d="M196 224c20-8 34-24 42-48" />
    <path d="M524 224c-20-8-32-24-36-50" />
  </g>

  <g class="sketch-group sketch-detail" stroke="#D7E6F2" stroke-width="1.1" stroke-linecap="round" stroke-linejoin="round" opacity=".38">
    <path d="M156 506h428" />
    <path d="M178 526h382" />
    <path d="M212 118c34-38 86-58 156-60" />
    <path d="M488 124c40 24 66 58 78 102" />
    <path d="M164 506c56-18 110-18 164 0" />
    <path d="M394 506c56-18 110-18 164 0" />
  </g>
</svg>
