<svg xmlns="http://www.w3.org/2000/svg" viewBox="0 0 720 640" fill="none" role="img" aria-label="Architectural line sketch">
  <g opacity=".26" stroke="#8FD0FF" stroke-width="1.1">
    <path class="mga-sketch-line mga-sketch-detail" pathLength="1" style="--line-delay: 640ms" d="M92 566h542" />
    <path class="mga-sketch-line mga-sketch-detail" pathLength="1" style="--line-delay: 700ms" d="M138 520h428" />
    <path class="mga-sketch-line mga-sketch-detail" pathLength="1" style="--line-delay: 760ms" d="M172 474h382" />
  </g>
  <g stroke="#F7FBFF" stroke-linecap="round" stroke-linejoin="round">
    <path class="mga-sketch-line" pathLength="1" style="--line-delay: 0ms" stroke-width="2.2" d="M230 568V112l178-34 118 76v414" />
    <path class="mga-sketch-line" pathLength="1" style="--line-delay: 90ms" stroke-width="2" d="M230 112l296 42" />
    <path class="mga-sketch-line" pathLength="1" style="--line-delay: 170ms" stroke-width="1.8" d="M408 78v490" />
    <path class="mga-sketch-line" pathLength="1" style="--line-delay: 240ms" stroke-width="1.8" d="M316 96v472" />
    <path class="mga-sketch-line" pathLength="1" style="--line-delay: 310ms" stroke-width="1.8" d="M492 134v434" />
  </g>
  <g opacity=".82" stroke="#D7ECFF" stroke-width="1.35" stroke-linecap="round" stroke-linejoin="round">
    <path class="mga-sketch-line" pathLength="1" style="--line-delay: 380ms" d="M254 158h244" />
    <path class="mga-sketch-line" pathLength="1" style="--line-delay: 430ms" d="M254 204h244" />
    <path class="mga-sketch-line" pathLength="1" style="--line-delay: 480ms" d="M254 250h244" />
    <path class="mga-sketch-line" pathLength="1" style="--line-delay: 530ms" d="M254 296h244" />
    <path class="mga-sketch-line" pathLength="1" style="--line-delay: 580ms" d="M254 342h244" />
    <path class="mga-sketch-line" pathLength="1" style="--line-delay: 630ms" d="M254 388h244" />
    <path class="mga-sketch-line" pathLength="1" style="--line-delay: 680ms" d="M254 434h244" />
    <path class="mga-sketch-line" pathLength="1" style="--line-delay: 730ms" d="M254 480h244" />
    <path class="mga-sketch-line" pathLength="1" style="--line-delay: 780ms" d="M254 526h244" />
  </g>
  <g opacity=".72" stroke="#B7DAF5" stroke-width="1.25" stroke-linecap="round" stroke-linejoin="round">
    <path class="mga-sketch-line mga-sketch-detail" pathLength="1" style="--line-delay: 840ms" d="M258 158l236 368" />
    <path class="mga-sketch-line mga-sketch-detail" pathLength="1" style="--line-delay: 900ms" d="M494 158L258 526" />
    <path class="mga-sketch-line mga-sketch-detail" pathLength="1" style="--line-delay: 960ms" d="M316 112l92 42 84-20" />
    <path class="mga-sketch-line mga-sketch-detail" pathLength="1" style="--line-delay: 1020ms" d="M230 568l86-42 92 42 84-42 34 42" />
  </g>
  <g opacity=".78" stroke="#EFF8FF" stroke-width="1.5" stroke-linecap="round" stroke-linejoin="round">
    <path class="mga-sketch-line" pathLength="1" style="--line-delay: 1080ms" d="M178 554V188l52-76" />
    <path class="mga-sketch-line" pathLength="1" style="--line-delay: 1160ms" d="M156 554V226l22-38" />
    <path class="mga-sketch-line" pathLength="1" style="--line-delay: 1240ms" d="M566 552V182l-40-28" />
    <path class="mga-sketch-line" pathLength="1" style="--line-delay: 1320ms" d="M590 552V220l-24-38" />
  </g>
  <g opacity=".55" stroke="#8FD0FF" stroke-width="1.1" stroke-linecap="round">
    <path class="mga-sketch-line mga-sketch-detail" pathLength="1" style="--line-delay: 1400ms" d="M126 244c22-16 34-38 34-66" />
    <path class="mga-sketch-line mga-sketch-detail" pathLength="1" style="--line-delay: 1460ms" d="M620 250c-24-18-38-42-38-70" />
    <path class="mga-sketch-line mga-sketch-detail" pathLength="1" style="--line-delay: 1520ms" d="M120 568c66-26 130-28 192 0" />
    <path class="mga-sketch-line mga-sketch-detail" pathLength="1" style="--line-delay: 1580ms" d="M420 568c66-26 130-28 192 0" />
  </g>
</svg>
